<?xml version="1.0" encoding="utf-8"?>
<!-- Generator: Adobe Illustrator 27.5.0, SVG Export Plug-In . SVG Version: 6.00 Build 0)  -->
<svg version="1.1" xmlns="http://www.w3.org/2000/svg" xmlns:xlink="http://www.w3.org/1999/xlink" x="0px" y="0px"
	 viewBox="0 0 500 500" style="enable-background:new 0 0 500 500;" xml:space="preserve">
<g id="Background_Complete">
	<g>
		<rect y="382.398" style="fill:#EBEBEB;" width="500" height="0.25"/>
		<rect x="416.779" y="398.494" style="fill:#EBEBEB;" width="33.122" height="0.25"/>
		<rect x="322.527" y="401.208" style="fill:#EBEBEB;" width="8.693" height="0.25"/>
		<rect x="396.586" y="389.208" style="fill:#EBEBEB;" width="19.192" height="0.25"/>
		<rect x="52.459" y="390.888" style="fill:#EBEBEB;" width="43.193" height="0.25"/>
		<rect x="104.556" y="390.888" style="fill:#EBEBEB;" width="6.333" height="0.25"/>
		<rect x="131.471" y="395.111" style="fill:#EBEBEB;" width="93.676" height="0.25"/>
		<path style="fill:#EBEBEB;" d="M237.014,337.8H43.915c-3.147,0-5.708-2.561-5.708-5.708V60.66c0-3.147,2.561-5.708,5.708-5.708
			h193.099c3.146,0,5.707,2.561,5.707,5.708v271.432C242.721,335.239,240.16,337.8,237.014,337.8z M43.915,55.203
			c-3.01,0-5.458,2.448-5.458,5.458v271.432c0,3.01,2.448,5.458,5.458,5.458h193.099c3.009,0,5.457-2.448,5.457-5.458V60.66
			c0-3.009-2.448-5.458-5.457-5.458H43.915z"/>
		<path style="fill:#EBEBEB;" d="M453.31,337.8H260.212c-3.147,0-5.707-2.561-5.707-5.708V60.66c0-3.147,2.561-5.708,5.707-5.708
			H453.31c3.148,0,5.708,2.561,5.708,5.708v271.432C459.019,335.239,456.458,337.8,453.31,337.8z M260.212,55.203
			c-3.009,0-5.457,2.448-5.457,5.458v271.432c0,3.01,2.448,5.458,5.457,5.458H453.31c3.01,0,5.458-2.448,5.458-5.458V60.66
			c0-3.009-2.448-5.458-5.458-5.458H260.212z"/>
	</g>
	<g>
		<polygon style="fill:#E0E0E0;" points="441.141,381.857 441.141,332.543 418.381,332.543 418.381,286.81 415.172,286.81 
			415.172,313.023 406.418,313.023 406.418,305.773 390.661,305.773 390.661,280.675 387.743,280.675 387.743,250 385.409,250 
			385.409,280.117 379.865,280.117 379.865,324.735 369.36,324.735 369.36,280.117 350.393,280.117 350.393,317.85 330.481,317.85 
			330.481,272.117 327.272,272.117 327.272,298.33 318.518,298.33 318.518,291.079 302.761,291.079 302.761,265.982 
			299.843,265.982 299.843,235.307 297.509,235.307 297.509,265.424 291.965,265.424 291.965,310.042 281.46,310.042 
			281.46,265.424 262.494,265.424 262.494,308.583 249.703,308.583 249.703,283.485 246.785,283.485 246.785,252.81 244.451,252.81 
			244.451,282.927 238.907,282.927 238.907,327.545 228.402,327.545 228.402,282.927 209.436,282.927 209.436,327.545 
			200.098,327.545 200.098,332.543 183.74,332.543 183.74,286.81 180.531,286.81 180.531,313.023 171.777,313.023 171.777,305.773 
			156.02,305.773 156.02,280.675 153.102,280.675 153.102,250 150.768,250 150.768,280.117 145.679,280.117 145.679,277.606 
			126.713,277.606 126.713,280.117 116.208,280.117 116.208,277.606 110.664,277.606 110.664,247.489 108.33,247.489 
			108.33,278.164 105.412,278.164 105.412,303.261 89.655,303.261 89.655,310.512 80.901,310.512 80.901,284.299 77.691,284.299 
			77.691,330.032 54.932,330.032 54.932,381.857 		"/>
		
			<ellipse transform="matrix(0.9239 -0.3827 0.3827 0.9239 -37.2898 65.9745)" style="fill:#FAFAFA;" cx="147.193" cy="126.722" rx="27.787" ry="27.787"/>
		<path style="fill:#F0F0F0;" d="M132.778,126.409c0-2.668-2.163-4.83-4.83-4.83c-0.482,0-0.947,0.073-1.387,0.204
			c0.07-0.484,0.108-0.979,0.108-1.483c0-5.649-4.58-10.229-10.229-10.229c-0.644,0-1.273,0.063-1.884,0.176
			c-1.572-2.573-4.398-4.296-7.634-4.296c-4.898,0-8.871,3.935-8.943,8.816c-0.05-0.001-0.099-0.007-0.149-0.007
			c-4.551,0-8.24,3.689-8.24,8.24c0,4.551,3.689,8.24,8.24,8.24h30.261l-0.006-0.007
			C130.688,131.159,132.778,129.03,132.778,126.409z"/>
		<path style="fill:#F0F0F0;" d="M441.375,202.395c0-2.668-2.163-4.83-4.83-4.83c-0.482,0-0.947,0.073-1.387,0.204
			c0.07-0.484,0.108-0.979,0.108-1.483c0-5.649-4.58-10.229-10.229-10.229c-0.644,0-1.273,0.062-1.884,0.176
			c-1.572-2.573-4.398-4.296-7.634-4.296c-4.898,0-8.871,3.935-8.943,8.816c-0.05-0.001-0.099-0.008-0.149-0.008
			c-4.551,0-8.24,3.689-8.24,8.24c0,4.551,3.689,8.24,8.24,8.24h30.26l-0.006-0.007
			C439.284,207.146,441.375,205.017,441.375,202.395z"/>
		<path style="fill:#F0F0F0;" d="M279.514,144.681c0-4.221,3.422-7.643,7.643-7.643c0.763,0,1.499,0.115,2.194,0.324
			c-0.111-0.767-0.171-1.549-0.171-2.347c0-8.938,7.246-16.184,16.184-16.184c1.019,0,2.014,0.099,2.981,0.279
			c2.487-4.071,6.959-6.798,12.079-6.798c7.749,0,14.035,6.227,14.151,13.949c0.079-0.002,0.156-0.012,0.236-0.012
			c7.2,0,13.037,5.837,13.037,13.037c0,7.201-5.837,13.038-13.037,13.038h-47.879l0.01-0.011
			C282.822,152.198,279.514,148.829,279.514,144.681z"/>
		<path style="fill:#F0F0F0;" d="M142.279,210.29c0-5.079,4.118-9.197,9.197-9.197c0.919,0,1.804,0.139,2.641,0.389
			c-0.134-0.922-0.206-1.864-0.206-2.824c0-10.757,8.72-19.477,19.477-19.477c1.226,0,2.424,0.119,3.588,0.336
			c2.994-4.899,8.375-8.18,14.536-8.18c9.326,0,16.891,7.493,17.029,16.786c0.095-0.002,0.188-0.014,0.284-0.014
			c8.665,0,15.689,7.024,15.689,15.689c0,8.665-7.024,15.689-15.689,15.689h-57.618l0.012-0.013
			C146.258,219.336,142.279,215.282,142.279,210.29z"/>
		<path style="fill:#F0F0F0;" d="M193.387,140.88c0-1.658-1.345-3.003-3.003-3.003c-0.3,0-0.589,0.045-0.862,0.127
			c0.044-0.301,0.067-0.609,0.067-0.922c0-3.512-2.847-6.359-6.359-6.359c-0.4,0-0.792,0.039-1.172,0.11
			c-0.977-1.6-2.734-2.671-4.746-2.671c-3.045,0-5.515,2.447-5.56,5.481c-0.031-0.001-0.061-0.005-0.093-0.005
			c-2.829,0-5.123,2.294-5.123,5.123c0,2.829,2.294,5.123,5.123,5.123h18.813l-0.004-0.004
			C192.088,143.833,193.387,142.51,193.387,140.88z"/>
		<path style="fill:#F0F0F0;" d="M394.698,108.479c0-1.659,1.345-3.003,3.003-3.003c0.3,0,0.589,0.045,0.862,0.127
			c-0.044-0.301-0.067-0.609-0.067-0.922c0-3.512,2.847-6.359,6.359-6.359c0.4,0,0.792,0.039,1.172,0.109
			c0.977-1.6,2.734-2.671,4.746-2.671c3.045,0,5.515,2.447,5.56,5.481c0.031-0.001,0.061-0.005,0.093-0.005
			c2.829,0,5.123,2.294,5.123,5.123c0,2.829-2.294,5.123-5.123,5.123h-18.813l0.004-0.004
			C395.998,111.432,394.698,110.109,394.698,108.479z"/>
	</g>
</g>
<g id="Background_Simple" style="display:none;">
	<g style="display:inline;">
		<path style="fill:#407BFF;" d="M86.401,116.356c27.919-59.449,127.059-51.062,165.317-9.255
			c38.258,41.806,50.696,68.599,85.208,52.983c34.512-15.616,78.518-11.44,81.043,38.164s-37.913,108.263-102.09,125.615
			c-64.177,17.352-64.161,78.759-149.1,66.368c-46.31-6.756-47.365-56.86-40.825-98.301S54.023,185.3,86.401,116.356z"/>
		<path style="opacity:0.9;fill:#FFFFFF;" d="M86.401,116.356c27.919-59.449,127.059-51.062,165.317-9.255
			c38.258,41.806,50.696,68.599,85.208,52.983c34.512-15.616,78.518-11.44,81.043,38.164s-37.913,108.263-102.09,125.615
			c-64.177,17.352-64.161,78.759-149.1,66.368c-46.31-6.756-47.365-56.86-40.825-98.301S54.023,185.3,86.401,116.356z"/>
	</g>
</g>
<g id="Shadow_1_">
	<ellipse id="_x3C_Path_x3E__359_" style="fill:#F5F5F5;" cx="250" cy="416.238" rx="193.889" ry="11.323"/>
</g>
<g id="Street">
	<g>
		<g>
			<path style="fill:#407BFF;" d="M87.481,401.294c0,0-2.44-8.174,2.496-9.802c4.936-1.628,7.864-5.45,7.699-9.774
				s5.03-8.531,8.927-4.479c3.896,4.052,3.377-3.116,8.572-4.857c5.195-1.742,9.599,2.484,8.177,6.346
				c-1.423,3.862,3.704,6.274,9.843,2.99s12.893,2.69,11.594,7.366c-1.299,4.676-0.235,5.195,3.649,3.637
				c3.884-1.559,10.832,2.857,8.397,8.572C154.4,407.009,87.481,401.294,87.481,401.294z"/>
			<path style="opacity:0.4;" d="M87.481,401.294c0,0-2.44-8.174,2.496-9.802c4.936-1.628,7.864-5.45,7.699-9.774
				s5.03-8.531,8.927-4.479c3.896,4.052,3.377-3.116,8.572-4.857c5.195-1.742,9.599,2.484,8.177,6.346
				c-1.423,3.862,3.704,6.274,9.843,2.99s12.893,2.69,11.594,7.366c-1.299,4.676-0.235,5.195,3.649,3.637
				c3.884-1.559,10.832,2.857,8.397,8.572C154.4,407.009,87.481,401.294,87.481,401.294z"/>
		</g>
		<g>
			<path style="fill:#407BFF;" d="M323.057,402.815c-4.382-2.972-0.438-8.024,3.944-8.619c4.382-0.594,8.787-5.824,8.995-9.153
				c0.208-3.329,8.096-13.569,20.366-7.246c12.27,6.324,8.541,0.931,17.417-0.845c8.876-1.777,14.476,3.335,10.58,7.169
				c0,0,8.917-1.515,12.59,4.131c3.673,5.647,0,9.154,0,9.154s16.77-0.336,15.261,6.697
				C410.703,411.137,323.057,402.815,323.057,402.815z"/>
			<path style="opacity:0.4;" d="M323.057,402.815c-4.382-2.972-0.438-8.024,3.944-8.619c4.382-0.594,8.787-5.824,8.995-9.153
				c0.208-3.329,8.096-13.569,20.366-7.246c12.27,6.324,8.541,0.931,17.417-0.845c8.876-1.777,14.476,3.335,10.58,7.169
				c0,0,8.917-1.515,12.59,4.131c3.673,5.647,0,9.154,0,9.154s16.77-0.336,15.261,6.697
				C410.703,411.137,323.057,402.815,323.057,402.815z"/>
		</g>
		<g>
			<path style="fill:#263238;" d="M80.712,400.25v12.008h338.312V400.25c0-2.086-1.455-3.769-3.541-3.769H84.253
				C82.166,396.482,80.712,398.164,80.712,400.25z"/>
			<g>
				<rect x="378.707" y="396.482" style="fill:#407BFF;" width="21.035" height="15.776"/>
				<rect x="339.266" y="396.482" style="fill:#407BFF;" width="20.159" height="15.776"/>
				<rect x="298.949" y="396.482" style="fill:#407BFF;" width="21.035" height="15.776"/>
				<rect x="259.509" y="396.482" style="fill:#407BFF;" width="20.159" height="15.776"/>
				<rect x="220.068" y="396.482" style="fill:#407BFF;" width="20.159" height="15.776"/>
				<rect x="179.751" y="396.482" style="fill:#407BFF;" width="21.035" height="15.776"/>
				<rect x="140.311" y="396.482" style="fill:#407BFF;" width="20.159" height="15.776"/>
				<rect x="99.994" y="396.482" style="fill:#407BFF;" width="21.035" height="15.776"/>
				<g style="opacity:0.6;enable-background:new    ;">
					<rect x="378.707" y="396.482" style="fill:#FFFFFF;" width="21.035" height="15.776"/>
					<rect x="339.266" y="396.482" style="fill:#FFFFFF;" width="20.159" height="15.776"/>
					<rect x="298.949" y="396.482" style="fill:#FFFFFF;" width="21.035" height="15.776"/>
					<rect x="259.509" y="396.482" style="fill:#FFFFFF;" width="20.159" height="15.776"/>
					<rect x="220.068" y="396.482" style="fill:#FFFFFF;" width="20.159" height="15.776"/>
					<rect x="179.751" y="396.482" style="fill:#FFFFFF;" width="21.035" height="15.776"/>
					<rect x="140.311" y="396.482" style="fill:#FFFFFF;" width="20.159" height="15.776"/>
					<rect x="99.994" y="396.482" style="fill:#FFFFFF;" width="21.035" height="15.776"/>
				</g>
			</g>
			<path style="opacity:0.4;fill:#FFFFFF;enable-background:new    ;" d="M80.712,400.25v12.008h338.312V400.25
				c0-2.086-1.455-3.769-3.541-3.769H84.253C82.166,396.482,80.712,398.164,80.712,400.25z"/>
		</g>
	</g>
</g>
<g id="Device">
	<g>
		<g>
			<path style="fill:#407BFF;enable-background:new    ;" d="M379.409,91.288V379.24c0,2.368-1.904,4.208-4.272,4.208H241.126
				c-1.066,0-2.004-0.401-2.678-1.075c-0.71-0.692-1.139-1.676-1.139-2.787V90.942c0-1.885,1.385-3.534,3.27-3.534h38.057
				c1.075,0,2.05,0.701,2.451,1.713l1.576,3.88c0.401,1.002,1.375,1.694,2.45,1.694h46.574c1.075,0,2.049-0.665,2.45-1.667
				l1.576-3.898c0.401-1.011,1.375-1.722,2.45-1.722h37.51C377.751,87.408,379.409,89.211,379.409,91.288z"/>
			<path style="fill:#407BFF;" d="M374.402,91.288V379.24c0,2.368-1.904,4.208-4.272,4.208H236.12c-1.066,0-2.004-0.401-2.678-1.075
				c-0.711-0.692-1.139-1.676-1.139-2.787V90.942c0-1.885,1.385-3.534,3.27-3.534h38.057c1.075,0,2.049,0.701,2.451,1.713
				l1.576,3.88c0.401,1.002,1.375,1.694,2.45,1.694h46.574c1.075,0,2.049-0.665,2.45-1.667l1.576-3.898
				c0.401-1.011,1.376-1.722,2.45-1.722h37.51C372.745,87.408,374.402,89.211,374.402,91.288z"/>
			<path style="opacity:0.4;fill:#FFFFFF;" d="M374.402,91.288V379.24c0,2.368-1.904,4.208-4.272,4.208H236.12
				c-1.066,0-2.004-0.401-2.678-1.075c-0.71-0.692-1.139-1.676-1.139-2.787V90.942c0-1.885,1.385-3.534,3.27-3.534h38.057
				c1.075,0,2.05,0.701,2.451,1.713l1.576,3.88c0.401,1.002,1.375,1.694,2.45,1.694h46.574c1.075,0,2.049-0.665,2.45-1.667
				l1.576-3.898c0.401-1.011,1.375-1.722,2.45-1.722h37.51C372.744,87.408,374.402,89.211,374.402,91.288z"/>
			<g style="opacity:0.1;enable-background:new    ;">
				<path style="fill:#FFFFFF;" d="M296.229,94.695l-40.908,153.23v0.009l-0.455,1.721v0.009l-0.738,2.76v0.009l-0.465,1.722
					l-21.36,80.013v-96.837l40.025-149.924h1.302c1.075,0,2.05,0.701,2.451,1.713l1.576,3.88c0.401,1.002,1.375,1.694,2.45,1.694
					H296.229z"/>
				<polygon style="fill:#FFFFFF;" points="374.402,172.95 374.402,269.787 348.888,365.358 348.269,367.681 344.06,383.448 
					318.209,383.448 322.418,367.69 323.092,365.157 326.471,352.496 327.145,349.964 328.502,344.899 329.177,342.367 
					330.525,337.302 331.198,334.77 352.468,255.112 352.468,255.103 353.452,251.423 353.452,251.414 				"/>
				<path style="fill:#FFFFFF;" d="M310.239,94.695l-40.653,152.274l-0.246,0.911l-2.223,8.344l-0.246,0.911l-33.43,125.239
					c-0.71-0.692-1.139-1.676-1.139-2.787v-14.729l28.757-107.722l0.246-0.911l2.223-8.344l0.246-0.911l40.653-152.274H310.239z"/>
			</g>
			<g>
				<g>
					
						<rect x="249.97" y="96.368" transform="matrix(-1 -1.224647e-16 1.224647e-16 -1 501.9205 195.3762)" style="opacity:0.6;fill:#FFFFFF;enable-background:new    ;" width="1.98" height="2.64"/>
					
						<rect x="246.743" y="95.488" transform="matrix(-1 -1.224647e-16 1.224647e-16 -1 495.4661 194.4956)" style="opacity:0.6;fill:#FFFFFF;enable-background:new    ;" width="1.98" height="3.521"/>
					
						<rect x="243.516" y="94.607" transform="matrix(-1 -1.224647e-16 1.224647e-16 -1 489.0118 193.6149)" style="opacity:0.6;fill:#FFFFFF;enable-background:new    ;" width="1.98" height="4.401"/>
					
						<rect x="240.288" y="93.726" transform="matrix(-1 -1.224647e-16 1.224647e-16 -1 482.5574 192.7342)" style="opacity:0.6;fill:#FFFFFF;enable-background:new    ;" width="1.98" height="5.282"/>
				</g>
				<g>
					<rect x="355.085" y="95.405" style="opacity:0.6;fill:#FFFFFF;enable-background:new    ;" width="1.174" height="2.64"/>
					
						<rect x="357.065" y="94.441" transform="matrix(-1 -1.224647e-16 1.224647e-16 -1 723.4819 193.4494)" style="opacity:0.6;fill:#FFFFFF;enable-background:new    ;" width="9.351" height="4.567"/>
				</g>
			</g>
			<path style="opacity:0.6;fill:#FFFFFF;" d="M349.65,126.367h-86.768c-3.083,0-5.583-2.499-5.583-5.582v0
				c0-3.083,2.499-5.582,5.583-5.582h86.768c3.083,0,5.583,2.499,5.583,5.582l0,0C355.233,123.868,352.733,126.367,349.65,126.367z"
				/>
			<rect x="240.438" y="157.55" style="opacity:0.4;fill:#FFFFFF;" width="125.98" height="176.96"/>
			<path style="opacity:0.6;fill:#FFFFFF;" d="M349.65,145.075h-86.768c-3.083,0-5.583-2.499-5.583-5.582v0
				c0-3.083,2.499-5.582,5.583-5.582h86.768c3.083,0,5.583,2.499,5.583,5.582l0,0C355.233,142.576,352.733,145.075,349.65,145.075z"
				/>
			<path style="fill:#407BFF;" d="M250.519,135.583L250.519,135.583c-1.67-1.671-4.379-1.671-6.049,0v0
				c-1.67,1.67-1.67,4.379,0,6.049l3.025,3.025l3.024-3.025C252.19,139.961,252.19,137.253,250.519,135.583z M248.841,139.953
				c-0.743,0.743-1.949,0.743-2.692,0c-0.744-0.743-0.744-1.949,0-2.692c0.743-0.743,1.949-0.743,2.692,0
				C249.584,138.004,249.584,139.21,248.841,139.953z"/>
			<path style="fill:#407BFF;" d="M267.883,162.187L267.883,162.187c-1.67-1.671-4.379-1.671-6.049,0v0
				c-1.67,1.67-1.67,4.379,0,6.049l3.025,3.025l3.024-3.025C269.553,166.566,269.553,163.857,267.883,162.187z M266.204,166.558
				c-0.743,0.743-1.949,0.743-2.692,0c-0.744-0.743-0.744-1.949,0-2.692c0.743-0.743,1.949-0.743,2.692,0
				C266.948,164.609,266.948,165.814,266.204,166.558z"/>
			<g>
				<path style="fill:#407BFF;" d="M247.495,116.037c-2.622,0-4.747,2.125-4.747,4.747c0,2.622,2.125,4.747,4.747,4.747
					c2.622,0,4.747-2.125,4.747-4.747C252.242,118.163,250.117,116.037,247.495,116.037z M247.495,123.868
					c-1.703,0-3.083-1.38-3.083-3.083c0-1.703,1.38-3.083,3.083-3.083s3.083,1.38,3.083,3.083
					C250.578,122.488,249.198,123.868,247.495,123.868z"/>
				<path style="fill:#407BFF;" d="M249.374,120.785c0,1.038-0.841,1.879-1.879,1.879s-1.879-0.841-1.879-1.879
					c0-1.038,0.841-1.879,1.879-1.879S249.374,119.747,249.374,120.785z"/>
			</g>
			<g>
				<path style="fill:#407BFF;" d="M337.471,305.146c-2.622,0-4.747,2.125-4.747,4.747c0,2.622,2.125,4.747,4.747,4.747
					c2.622,0,4.747-2.125,4.747-4.747C342.218,307.272,340.092,305.146,337.471,305.146z M337.471,312.977
					c-1.703,0-3.083-1.38-3.083-3.083c0-1.703,1.38-3.083,3.083-3.083c1.703,0,3.083,1.38,3.083,3.083
					C340.554,311.596,339.173,312.977,337.471,312.977z"/>
				<path style="fill:#407BFF;" d="M339.35,309.894c0,1.038-0.841,1.879-1.879,1.879c-1.038,0-1.879-0.841-1.879-1.879
					c0-1.038,0.841-1.879,1.879-1.879C338.508,308.014,339.35,308.856,339.35,309.894z"/>
			</g>
			<g>
				<path style="opacity:0.2;" d="M366.418,187.29v-9.68l-29.63,28.31l-31.3-10.8l19.61-37.57h-7.9l-8.36,16.02l-60.65-16.02h-7.75
					v5.2l22.82,6.02l-18.5,33.75l43.43,10.61l-5.16,9.88l-42.59-11.07v7.24l39.27,10.2l-12.71,24.37l-20.07-5.84l-6.49,4.23v8.36
					l7.62-4.97l15.63,4.54l-23.25,44.56v15.12l15.21-29.14l20.69,6.08v26.6l23.62,11.22h16.31l-32.93-15.64v-20.12l83.08,24.4v-7.3
					l-24.79-7.28l7.53-41.78l17.26,4.52v-7.23l-46.57-12.21l20.66-39.82L366.418,187.29z M255.278,197.89l14.96-27.28l35.28,9.32
					l-13.99,26.81L255.278,197.89z M342.368,265.01l-7.5,41.58l-75.92-22.3l21.29-40.79l8.14,9.04l25.57,5.02L342.368,265.01z
					 M312.828,250.21l-20.81-4.09l-8.33-9.24l18.53-35.49l30.48,10.52L312.828,250.21z"/>
				<path style="opacity:0.4;fill:#FFFFFF;" d="M321.2,174.21l-9.982,19.329l25.592,7.852l14.118-14.617
					C340.796,183.138,330.816,179.042,321.2,174.21z"/>
				<path style="opacity:0.4;fill:#FFFFFF;" d="M366.418,157.55v13.19l-12.52,12.96c-8.42-2.96-16.73-6.24-24.82-10
					c-2.05-0.95-4.08-1.93-6.09-2.95l6.82-13.2H366.418z"/>
				<polygon style="opacity:0.4;fill:#FFFFFF;" points="303.427,205.659 327.185,213.677 315.306,238.534 291.185,230.78 				"/>
				<path style="opacity:0.4;fill:#FFFFFF;" d="M327.185,248.466c0.198-0.675,11.67-24.411,11.67-24.411l17.011,5.285l2.967,26.851
					L327.185,248.466z"/>
				<path style="opacity:0.4;fill:#FFFFFF;" d="M292.406,285.28c0.362-0.302,8.254-24.613,8.254-24.613l36.811,6.473l-6.132,32.476
					L292.406,285.28z"/>
				<path style="opacity:0.4;fill:#FFFFFF;" d="M272.591,271.382l11.1,3.664l-5.55,10.234c0,0-11.682-2.676-11.682-3.467
					S272.591,271.382,272.591,271.382z"/>
				<path style="opacity:0.4;fill:#FFFFFF;" d="M273.188,302.18c-0.27,0.66-4.12,19.66-6.67,32.33h-25.35l15.59-35.88
					L273.188,302.18z"/>
				<path style="opacity:0.4;fill:#FFFFFF;" d="M366.418,325.88v8.63h-20.92l-29.5-9.75c0.94-3.96,1.98-7.88,3.26-11.74
					L366.418,325.88z"/>
				<path style="opacity:0.4;fill:#FFFFFF;" d="M315.489,311.994l-21.14-5.767l-2.967,10.399l20.896,6.906
					C313.209,319.644,314.234,315.783,315.489,311.994z"/>
				<polygon style="opacity:0.4;fill:#FFFFFF;" points="366.418,284.28 366.418,306.42 346.968,302.18 350.928,281.22 				"/>
				<polygon style="opacity:0.4;fill:#FFFFFF;" points="250.019,241.857 256.19,227.755 273.365,232.814 266.46,247.547 				"/>
				<polygon style="opacity:0.4;fill:#FFFFFF;" points="265.668,192.801 274.136,177.452 297.119,184.12 289.405,200.516 				"/>
				<path style="opacity:0.4;fill:#FFFFFF;" d="M311.588,157.55c-2.13,4.31-4.88,9.78-5.32,10.13c-0.58,0.46-28.85-6.85-41.41-10.13
					H311.588z"/>
				<polygon style="opacity:0.4;fill:#FFFFFF;" points="256.178,172.95 240.438,205.84 240.438,168.86 				"/>
			</g>
			<path style="fill:none;stroke:#407BFF;stroke-width:2;stroke-linecap:round;stroke-linejoin:round;stroke-miterlimit:10;" d="
				M339.35,303.181l6.956-40.31c0,0-27.89-8.804-55.121-13.392l-11.538-12.501l13.978-26.901l-43.606-9.87l14.247-25.997"/>
			<path style="opacity:0.2;" d="M363.788,356.883H243.068c-1.453,0-2.63-1.178-2.63-2.63v-5.927c0-1.453,1.178-2.63,2.63-2.63
				h120.719c1.453,0,2.63,1.178,2.63,2.63v5.927C366.418,355.705,365.24,356.883,363.788,356.883z"/>
		</g>
	</g>
</g>
<g id="Character">
	<g>
		<g>
			<g>
				<path style="fill:#EBB376;" d="M204.371,181.47c1.682,1.125,3.54,2.38,5.361,3.481c1.826,1.135,3.674,2.223,5.523,3.231
					c1.855,0.997,3.714,1.923,5.546,2.658c0.915,0.359,1.815,0.673,2.671,0.916c0.43,0.126,0.847,0.221,1.237,0.291l0.294,0.055
					c0.11,0.022,0.087,0.007,0.137,0.019c0.037,0.025,0.199,0.015,0.332,0.02c0.605-0.008,1.542-0.169,2.472-0.392
					c0.943-0.228,1.929-0.519,2.925-0.852c2-0.655,4.034-1.437,6.07-2.259c4.059-1.665,8.191-3.462,12.248-5.276l0.045-0.02
					c1.231-0.55,2.676,0.002,3.226,1.233c0.473,1.059,0.13,2.276-0.759,2.946c-3.71,2.799-7.505,5.351-11.555,7.67
					c-2.021,1.163-4.099,2.259-6.299,3.268c-1.106,0.495-2.248,0.965-3.466,1.393c-1.232,0.423-2.497,0.823-4.143,1.019
					c-0.431,0.041-0.832,0.09-1.36,0.075c-0.232-0.003-0.538-0.005-0.709-0.021l-0.547-0.046c-0.73-0.064-1.429-0.164-2.098-0.292
					c-1.348-0.248-2.616-0.585-3.829-0.98c-2.422-0.789-4.683-1.737-6.848-2.799c-2.175-1.046-4.249-2.206-6.278-3.425
					c-2.027-1.263-3.956-2.477-5.954-3.972c-2.169-1.623-2.612-4.697-0.989-6.865c1.568-2.096,4.49-2.58,6.643-1.147L204.371,181.47
					z"/>
			</g>
			<path style="fill:#407BFF;" d="M214.585,185.4c0,0-2.99,6.67-6.18,10.34c-0.74,0.86-1.5,1.55-2.23,1.96
				c-4.75-3.23-7.76-5.67-9.68-7.9c-2.66-3.09-3.19-5.8-3.25-9.68C200.074,175.42,214.585,185.4,214.585,185.4z"/>
			<path style="opacity:0.2;" d="M208.404,195.74c-0.74,0.86-1.5,1.55-2.23,1.96c-4.75-3.23-7.76-5.67-9.68-7.9
				c-0.18-0.52-0.34-1.02-0.48-1.52C196.014,188.28,205.294,188.01,208.404,195.74z"/>
			<g>
				<path style="fill:#263238;" d="M162.565,160.215c0,0,1.848,3.65-0.857,7.301c-2.704,3.65-12.498,12.376-3.061,19.053
					c9.438,6.678,25.281-7.568,24.927-18.43C183.221,157.277,167.729,153.982,162.565,160.215z"/>
				
					<path style="fill:none;stroke:#263238;stroke-width:0.9002;stroke-linecap:round;stroke-linejoin:round;stroke-miterlimit:10;" d="
					M162.981,159.764c0,0,1.576,6.518-3.159,8.826c-4.735,2.308-9.454,4.267-8.564,9.075"/>
			</g>
			<path style="fill:#263238;" d="M212.173,393.268c-5.998,0-6.79-0.093-10.161-0.206c-2.886-0.103-3.576,0.258-5.895,0.206
				c-1.938-0.041-1.865-1.896-1.268-4.03c0.299-1.071,0.76-3.337,1.172-5.068l8.787-0.638c1.237,2.36,4.027,5.727,7.407,6.18
				C215.441,390.145,214.564,393.268,212.173,393.268z"/>
			<g>
				<path style="fill:#407BFF;" d="M208.363,227.752c10.349,32.032,3.765,50.947,0.089,74.829
					c-3.86,25.081-4.35,65.326-3.385,81.726c-1.405,0.816-6.496,0.248-9.264-0.617c0,0-16.647-53.798-4.422-78.632
					c-7.91-58.032,0.002-74.618,0.002-74.618L208.363,227.752z"/>
				<path style="opacity:0.6;fill:#FFFFFF;" d="M208.448,302.579c-3.854,25.085-4.348,65.324-3.378,81.73
					c-1.411,0.812-6.501,0.247-9.271-0.617c0,0-5.292-17.12-7.718-36.499c-1.87-14.977-2.028-31.303,3.299-42.135
					c-1.791-13.116-2.77-24.115-3.22-33.279c-1.517-31.401,3.22-41.341,3.22-41.341l16.979-2.681
					C218.715,259.782,212.126,278.702,208.448,302.579z"/>
				<path style="opacity:0.2;" d="M188.082,347.192c-1.87-14.977-2.028-31.303,3.299-42.135c-1.791-13.116-2.77-24.115-3.22-33.279
					c2.011-0.556,4.11-0.944,6.315-1.138C194.477,270.64,202.485,312.449,188.082,347.192z"/>
			</g>
			<path style="fill:#407BFF;" d="M205.438,377.364c0.174,1.463,0.512,4.01,0.95,5.936c0.158,0.695-0.085,1.377-0.532,1.535
				c-3.733,1.323-9.406,0.496-11.211,0.18c-0.346-0.061-0.642-0.448-0.746-0.964l-1.119-5.53c-0.153-0.756,0.167-1.481,0.669-1.516
				l11.084-0.758C204.962,376.218,205.359,376.704,205.438,377.364z"/>
			<path style="fill:#263238;" d="M193.639,393.268c-5.998,0-6.79-0.093-10.16-0.206c-2.886-0.103-3.576,0.258-5.895,0.206
				c-1.938-0.041-1.865-1.896-1.268-4.03c0.299-1.071,0.76-3.337,1.172-5.068l8.787-0.638c1.237,2.36,4.027,5.727,7.407,6.18
				C196.907,390.145,196.029,393.268,193.639,393.268z"/>
			<g>
				<path style="fill:#407BFF;" d="M200.005,229.075c0,0-6.413,49.624-10.088,73.506c-3.86,25.081-4.35,65.326-3.385,81.726
					c-1.405,0.816-6.496,0.248-9.264-0.617c0,0-16.647-53.798-4.422-78.632c-7.91-58.032,3.538-72.243,3.538-72.243L200.005,229.075
					z"/>
				<path style="opacity:0.6;fill:#FFFFFF;" d="M200.005,229.075c0,0-6.413,49.624-10.088,73.506
					c-3.86,25.081-4.35,65.326-3.385,81.726c-1.405,0.816-6.496,0.248-9.264-0.617c0,0-16.647-53.798-4.422-78.632
					c-7.91-58.032,3.538-72.243,3.538-72.243L200.005,229.075z"/>
			</g>
			<path style="fill:#407BFF;" d="M186.904,377.364c0.174,1.463,0.512,4.01,0.95,5.936c0.158,0.695-0.085,1.377-0.532,1.535
				c-3.733,1.323-9.406,0.496-11.211,0.18c-0.346-0.061-0.642-0.448-0.746-0.964l-1.119-5.53c-0.153-0.756,0.167-1.481,0.669-1.516
				l11.084-0.758C186.428,376.218,186.825,376.704,186.904,377.364z"/>
			<path style="fill:#407BFF;" d="M208.359,227.754l-31.976,5.059c-0.342-3.907-1.026-7.994-2.404-12.927
				c-1.197-4.294-2.926-9.218-5.41-15.214c-1.305-3.16-2.827-6.608-4.591-10.425c-2.08-4.492,0.18-9.47,4.843-10.704
				c0.477-0.126,0.963-0.252,1.458-0.369c0,0,0.036-0.009,0.099-0.027c0.774-0.189,1.575-0.369,2.386-0.54
				c5.32-1.107,9.687-1.972,14.521-2.296c1.602-0.108,3.268-0.171,4.861-0.198c1.224-0.027,2.413,0.216,3.556,0.675
				c4.24,1.674,7.661,6.239,8.498,10.659c0.594,3.133,1.368,5.456,2.115,13.035C207.081,210.875,207.63,217.195,208.359,227.754z"/>
			<path style="fill:#EBB376;" d="M171.192,166.097c2.004,4.472,4.911,12.787,2.368,16.385c0,0,4.32-1.365,14.636,2.958
				c2.103-4.333-0.115-5.257-0.115-5.257c-5.499-0.405-6.265-4.246-6.203-7.977L171.192,166.097z"/>
			<path style="opacity:0.2;" d="M175.549,168.591l6.324,3.613c-0.018,0.883,0.016,1.771,0.152,2.618
				c-2.057,0.031-5.3-1.695-5.997-3.721C175.681,170.09,175.492,169.096,175.549,168.591z"/>
			<g>
				<path style="fill:#EBB376;" d="M165.718,157.352c2.612,7.32,3.561,10.464,8.438,13.401c7.337,4.418,15.777,0.13,15.41-7.696
					c-0.331-7.044-4.546-17.83-12.714-19.09C168.805,142.725,163.106,150.032,165.718,157.352z"/>
				<g>
					<path style="fill:#263238;" d="M174.323,140.488c5.681,0,14,5.232,6.774,6.782c0.072,2.325-4.176,2.519-7.316,1.421
						c0.51,1.685-2.216,5.177-6.133,4.3c2.283,1.126,2.69,6.938,0,7.391c-2.69,0.452-8.309,2.206-7.793-7.391
						C160.372,143.394,168.252,140.488,174.323,140.488z"/>
				</g>
				<path style="fill:#263238;" d="M175.552,157.083c0.193,0.624,0.676,1.053,1.08,0.958c0.404-0.095,0.575-0.677,0.383-1.301
					c-0.193-0.624-0.676-1.053-1.08-0.958C175.53,155.877,175.359,156.46,175.552,157.083z"/>
				<path style="fill:#263238;" d="M183.36,154.995c0.193,0.624,0.676,1.053,1.08,0.958c0.404-0.095,0.575-0.677,0.383-1.301
					c-0.193-0.624-0.676-1.053-1.08-0.958C183.339,153.789,183.168,154.371,183.36,154.995z"/>
				<path style="fill:#263238;" d="M183.575,153.77l1.351-0.78C184.926,152.99,184.526,154.339,183.575,153.77z"/>
				<path style="fill:#D58745;" d="M181.383,156.93c0,0,1.878,2.439,3.432,3.464c-0.578,0.96-2.074,0.934-2.074,0.934
					L181.383,156.93z"/>
				<path style="fill:#263238;" d="M179.899,164.468c0.338-0.018,0.693-0.066,1.064-0.153c0.1-0.023,0.156-0.124,0.125-0.226
					c-0.031-0.101-0.135-0.164-0.238-0.141c-2.709,0.638-4.569-0.978-4.587-0.994c-0.081-0.073-0.201-0.07-0.268,0.005
					c-0.067,0.075-0.056,0.194,0.025,0.266C176.092,163.288,177.588,164.59,179.899,164.468z"/>
				<path style="fill:#EBB376;" d="M165.019,164.043c1.28,1.31,2.967,1.906,4.371,1.898c2.112-0.012,2.451-2.188,1.263-4.002
					c-1.069-1.633-3.456-3.594-5.287-2.708C163.562,160.105,163.555,162.546,165.019,164.043z"/>
				<path style="fill:#263238;" d="M173.183,153.447c0.098-0.014,0.188-0.067,0.244-0.154c0.88-1.366,2.277-1.324,2.293-1.324
					c0.207,0.007,0.374-0.152,0.368-0.361c-0.007-0.207-0.182-0.382-0.392-0.391c-0.073-0.003-1.826-0.056-2.919,1.639
					c-0.109,0.169-0.051,0.404,0.128,0.525C172.992,153.439,173.091,153.46,173.183,153.447z"/>
				<path style="fill:#263238;" d="M185.317,150.132c0.094-0.001,0.185-0.037,0.253-0.107c0.139-0.146,0.123-0.384-0.034-0.532
					c-1.578-1.486-3.274-1.165-3.346-1.15c-0.202,0.041-0.321,0.239-0.264,0.443c0.056,0.203,0.265,0.335,0.467,0.295
					c0.066-0.014,1.386-0.243,2.641,0.939C185.114,150.096,185.217,150.133,185.317,150.132z"/>
				<path style="fill:#263238;" d="M175.766,155.859l1.351-0.78C177.117,155.078,176.717,156.427,175.766,155.859z"/>
				<g>
					<path style="fill:#407BFF;" d="M165.718,157.352c1.555-0.359,1.863-4.753,1.92-6.929c0.02-0.768,0.456-1.467,1.135-1.827
						c2.584-1.369,9.201-4.538,15.477-4.767l0.675-1.717c0,0-4.524-6.767-14.615-4.63c-10.09,2.137-12.94,9.109-13.058,11.736
						c-0.119,2.628,1.068,9.276,1.543,10.463c0.475,1.187,4.405,2.256,4.405,2.256S161.958,158.219,165.718,157.352z"/>
					<path style="fill:#263238;" d="M162.981,147.616c0,0.664-0.379,1.202-0.846,1.202c-0.467,0-0.846-0.538-0.846-1.202
						c0-0.664,0.379-1.202,0.846-1.202C162.602,146.414,162.981,146.952,162.981,147.616z"/>
					<path style="fill:#263238;" d="M158.661,148.219c-0.225,0.625-0.583,1.068-0.801,0.989c-0.218-0.078-0.212-0.648,0.013-1.273
						c0.225-0.625,0.583-1.068,0.801-0.989C158.892,147.025,158.886,147.594,158.661,148.219z"/>
					<path style="fill:#263238;" d="M170.714,140.927c0.405,0.526,0.433,1.183,0.063,1.468c-0.37,0.285-0.998,0.09-1.403-0.436
						c-0.405-0.526-0.433-1.183-0.063-1.468C169.68,140.206,170.309,140.401,170.714,140.927z"/>
					<path style="fill:#263238;" d="M178.436,138.792c0.549,0.373,0.858,0.876,0.69,1.123c-0.168,0.248-0.75,0.146-1.299-0.226
						c-0.549-0.373-0.858-0.876-0.69-1.123C177.305,138.318,177.887,138.419,178.436,138.792z"/>
				</g>
			</g>
			<path style="fill:#EBB376;" d="M201.537,210.516l-2.358-0.524c-0.887-0.197-1.814,0.046-2.49,0.654l-3.156,2.839
				c-1.262,1.135-1.896,2.811-1.701,4.497l0.121,1.044c3.851,1.137,8.851-0.472,8.851-0.472l1.476-0.3
				c1.314-0.268,2.142-1.457,1.899-2.73l-0.558-2.933C203.429,211.577,202.599,210.752,201.537,210.516z"/>
			<path style="fill:#EBB376;" d="M257.341,180.521l-2.358-0.524c-0.887-0.197-1.814,0.046-2.49,0.654l-3.156,2.839
				c-1.262,1.135-1.896,2.811-1.701,4.497l0.121,1.044c3.851,1.137,8.851-0.472,8.851-0.472l1.476-0.301
				c1.314-0.268,2.141-1.457,1.899-2.73l-0.558-2.933C259.233,181.582,258.403,180.757,257.341,180.521z"/>
			<path style="opacity:0.2;" d="M173.98,219.886c-1.197-4.294-2.926-9.218-5.41-15.214c3.637-4.987,2.763-9.255,2.763-9.255
				S178.782,202.595,173.98,219.886z"/>
			<g>
				<path style="fill:#EBB376;" d="M171.246,193.518c-0.116,0.993-0.226,2.194-0.331,3.305c-0.099,1.134-0.177,2.273-0.234,3.411
					c-0.128,2.276-0.177,4.547-0.157,6.794c0.076,4.469,0.475,8.942,1.712,12.708l-0.431-0.833c-0.239-0.345-0.57-0.486-0.581-0.464
					c-0.04,0.011,0.135,0.105,0.418,0.168c0.572,0.136,1.473,0.179,2.412,0.126c1.903-0.104,4.034-0.443,6.148-0.9
					c2.129-0.442,4.282-0.993,6.44-1.578c2.159-0.562,4.343-1.229,6.463-1.854l0.06-0.018c1.295-0.382,2.654,0.359,3.036,1.654
					c0.322,1.092-0.157,2.231-1.091,2.79c-2.068,1.236-4.136,2.282-6.269,3.326c-2.136,1.014-4.322,1.944-6.597,2.773
					c-2.289,0.801-4.627,1.553-7.28,1.972c-1.335,0.201-2.741,0.352-4.445,0.199c-0.852-0.083-1.805-0.253-2.89-0.714
					c-1.061-0.435-2.332-1.302-3.216-2.598c-0.139-0.204-0.255-0.417-0.348-0.635l-0.083-0.199c-1.104-2.62-1.815-5.249-2.288-7.852
					c-0.485-2.602-0.753-5.182-0.882-7.742c-0.139-2.56-0.125-5.1-0.008-7.626c0.066-1.263,0.155-2.523,0.269-3.784
					c0.112-1.283,0.252-2.474,0.468-3.862c0.417-2.676,2.924-4.508,5.601-4.091c2.611,0.407,4.419,2.803,4.118,5.406
					L171.246,193.518z"/>
			</g>
			<path style="fill:#407BFF;" d="M166.348,184.683c-5.457,3.858-7.255,6.872-7.255,20.583c3.941,1.975,14.903,0.027,14.903,0.027
				S174.081,187.684,166.348,184.683z"/>
			<path style="fill:#EBB376;" d="M186.898,189.953c-9.534-0.117-16.618-6.779-16.618-6.779s0.036-0.009,0.099-0.027
				c0.774-0.189,1.575-0.369,2.386-0.54c5.32-1.107,9.687-1.972,14.521-2.296c1.602-0.108,3.268-0.171,4.861-0.198
				c1.224-0.027,2.413,0.216,3.556,0.675C196.873,184.246,194.937,190.052,186.898,189.953z"/>
			<g style="opacity:0.6;">
				<g>
					<path style="fill:#FFFFFF;" d="M184.134,208.424l0.094-0.68c0.34,0.347,0.862,0.553,1.343,0.476
						c0.647-0.103,0.862-0.539,0.781-1.046c-0.227-1.422-2.351-0.161-2.697-2.324c-0.144-0.898,0.184-1.735,1.168-1.892
						c0.439-0.07,0.922,0.04,1.286,0.323l-0.07,0.693c-0.378-0.272-0.77-0.363-1.103-0.31c-0.636,0.102-0.843,0.561-0.762,1.068
						c0.227,1.423,2.353,0.17,2.694,2.308c0.143,0.891-0.195,1.729-1.185,1.887C185.112,209.019,184.502,208.809,184.134,208.424z"
						/>
					<path style="fill:#FFFFFF;" d="M191.374,207.95l-0.683-4.241l-0.788,3.752l-0.246,0.039l-1.914-3.294l0.674,4.218l-0.513,0.082
						l-0.93-5.823l0.438-0.07l2.216,3.843l0.887-4.339l0.438-0.07l0.936,5.822L191.374,207.95z"/>
					<path style="fill:#FFFFFF;" d="M195.162,205.852l-1.99,0.318l-0.179,1.521l-0.551,0.088l0.765-6.094l0.529-0.085l2.631,5.551
						l-0.562,0.09L195.162,205.852z M194.868,205.216l-1.264-2.725l-0.352,2.983L194.868,205.216z"/>
					<path style="fill:#FFFFFF;" d="M199.426,206.664l-1.094-1.659c-0.073,0.02-0.152,0.042-0.232,0.054l-0.926,0.148l0.283,1.771
						l-0.535,0.086l-0.93-5.823l1.46-0.233c0.974-0.156,1.685,0.516,1.887,1.781c0.143,0.898-0.053,1.595-0.53,1.969l1.2,1.813
						L199.426,206.664z M198.804,202.873c-0.133-0.832-0.567-1.249-1.252-1.139l-0.909,0.145l0.419,2.62l0.91-0.145
						C198.655,204.245,198.936,203.705,198.804,202.873z"/>
					<path style="fill:#FFFFFF;" d="M200.685,201.233l-1.284,0.205l-0.116-0.725l3.097-0.495l0.115,0.725l-1.284,0.205l0.815,5.099
						l-0.53,0.084L200.685,201.233z"/>
				</g>
				<g>
					<polygon style="fill:#FFFFFF;" points="201.197,192.966 197.576,193.514 196.24,196.924 198.525,199.786 202.146,199.238 
						203.482,195.828 					"/>
				</g>
				<g>
					<polygon style="fill:#FFFFFF;" points="195.922,197.255 194.112,197.529 193.444,199.234 194.586,200.665 196.397,200.391 
						197.065,198.686 					"/>
				</g>
			</g>
		</g>
		<g>
			<g>
				<ellipse style="fill:#263238;" cx="242.717" cy="391.223" rx="24.046" ry="30.041"/>
				<ellipse style="opacity:0.6;fill:#FFFFFF;" cx="237.772" cy="391.223" rx="19.101" ry="23.863"/>
				<ellipse style="fill:#263238;" cx="233.25" cy="391.223" rx="12.12" ry="15.142"/>
				<path style="fill:#263238;" d="M225.039,403.985h-57.196c-1.655,0-3.243-0.655-4.416-1.822l-4.513-4.491h74.335l-3.411,4.072
					C228.649,403.164,226.892,403.985,225.039,403.985z"/>
				<path style="opacity:0.2;fill:#FFFFFF;" d="M225.039,403.985h-57.196c-1.655,0-3.243-0.655-4.416-1.822l-4.513-4.491h74.335
					l-3.411,4.072C228.649,403.164,226.892,403.985,225.039,403.985z"/>
				<path style="fill:#263238;" d="M238.313,402.076h-95.757c-2.422,0-4.404-1.982-4.404-4.404l0,0c0-2.422,1.982-4.404,4.404-4.404
					h95.757c2.422,0,4.404,1.982,4.404,4.404l0,0C242.717,400.094,240.735,402.076,238.313,402.076z"/>
				<path style="opacity:0.4;fill:#FFFFFF;" d="M238.313,402.076h-95.757c-2.422,0-4.404-1.982-4.404-4.404l0,0
					c0-2.422,1.982-4.404,4.404-4.404h95.757c2.422,0,4.404,1.982,4.404,4.404l0,0C242.717,400.094,240.735,402.076,238.313,402.076
					z"/>
			</g>
			<g>
				<ellipse style="fill:#263238;" cx="149.464" cy="391.223" rx="24.045" ry="30.041"/>
				<ellipse style="opacity:0.6;fill:#FFFFFF;" cx="144.519" cy="391.223" rx="19.101" ry="23.863"/>
				<path style="opacity:0.2;" d="M151.734,386.346C151.734,386.346,151.734,386.346,151.734,386.346
					c0-0.001-0.001-0.001-0.001-0.002l-0.052-0.19h-0.005c-1.717-6.188-6.389-10.335-11.686-10.335
					c-6.823,0-12.374,6.908-12.374,15.398c0,8.496,5.551,15.408,12.374,15.408c5.287,0,9.959-4.147,11.686-10.334h0.006l0.052-0.19
					c0.425-1.552,0.641-3.195,0.641-4.884C152.374,389.536,152.158,387.897,151.734,386.346z M139.989,406.108
					c-6.538,0-11.857-6.68-11.857-14.89c0-8.205,5.319-14.88,11.857-14.88c5.021,0,9.46,3.933,11.146,9.817h-2.292
					c-1.358,0-2.633,0.527-3.59,1.483c-0.957,0.957-1.484,2.229-1.484,3.58c0,2.798,2.276,5.074,5.074,5.074h2.292
					C149.439,402.175,145,406.108,139.989,406.108z M151.817,392.415c-0.008,0.13-0.025,0.258-0.036,0.387
					c-0.022,0.265-0.044,0.53-0.077,0.791c-0.02,0.152-0.048,0.3-0.071,0.451c-0.036,0.235-0.071,0.471-0.116,0.703
					c-0.031,0.158-0.071,0.312-0.106,0.469c-0.042,0.187-0.084,0.374-0.132,0.558h-2.436c-2.512,0-4.556-2.044-4.556-4.557
					c0-1.214,0.473-2.354,1.332-3.214c0.859-0.859,2.004-1.332,3.224-1.332h2.436c0.048,0.184,0.09,0.37,0.132,0.556
					c0.036,0.157,0.076,0.313,0.107,0.472c0.045,0.228,0.079,0.46,0.115,0.692c0.024,0.154,0.053,0.305,0.073,0.46
					c0.033,0.258,0.054,0.52,0.076,0.781c0.011,0.131,0.028,0.261,0.037,0.393c0.025,0.395,0.038,0.793,0.038,1.193
					C151.856,391.62,151.842,392.019,151.817,392.415z"/>
			</g>
		</g>
		<g>
			<path style="fill:#263238;" d="M228.362,216.188h-30.1c-1.154,0-2.215,0.715-2.569,1.814c-0.044,0.137-0.083,0.279-0.114,0.424
				c-0.355,1.667,0.978,3.223,2.682,3.223h52.8c2.777,0,3.827-3.76,1.381-5.074c-0.07-0.037-0.142-0.074-0.217-0.111
				c-0.374-0.182-0.789-0.276-1.204-0.276H228.362z"/>
			<g>
				<path style="fill:#263238;" d="M207.561,395.987c0,0,1.984-30.485,19.297-63.172c0.513-0.969,0.792-2.05,0.792-3.147v-99.232
					c0-3.529-1.242-6.946-3.509-9.652l-3.851-4.597l0.84-1.509l3.814,1.916c5.017,2.521,8.211,7.629,8.28,13.243l1.299,105.223
					c0.008,0.68-0.087,1.357-0.282,2.009l-18.52,61.698L207.561,395.987z"/>
				<path style="fill:#263238;" d="M221.061,395.774c0,0,3.183-36.901,18.692-61.147c0.674-1.054,1.012-2.289,1.012-3.54V229.6
					c0-4.632-2.136-9.005-5.789-11.853l-3.936-3.068h-9.909l3.936,3.068c3.653,2.848,5.789,7.221,5.789,11.853v101.488
					c0,1.251-0.337,2.486-1.012,3.54c-15.508,24.246-18.692,61.147-18.692,61.147H221.061z"/>
				<path style="opacity:0.2;fill:#FFFFFF;" d="M221.061,395.774c0,0,3.183-36.901,18.692-61.147
					c0.674-1.054,1.012-2.289,1.012-3.54V229.6c0-4.632-2.136-9.005-5.789-11.853l-3.936-3.068h-9.909l3.936,3.068
					c3.653,2.848,5.789,7.221,5.789,11.853v101.488c0,1.251-0.337,2.486-1.012,3.54c-15.508,24.246-18.692,61.147-18.692,61.147
					H221.061z"/>
			</g>
			<path style="fill:#263238;" d="M222.908,395.478l-0.612,6.293c-0.126,1.26-1.179,2.215-2.44,2.215h-19.445l1.837-1.909h1.674
				c0.882,0,1.63-0.675,1.711-1.557l0.441-4.519c0.072-0.729,0.684-1.287,1.413-1.287h14.728
				C222.619,394.712,222.944,395.072,222.908,395.478z"/>
			<path style="opacity:0.1;fill:#FFFFFF;" d="M222.908,395.478l-0.612,6.293c-0.126,1.26-1.179,2.215-2.44,2.215h-15.457
				l3.637-0.459c0.855-0.108,1.521-0.81,1.584-1.674l0.441-5.852c0.063-0.729,0.684-1.287,1.413-1.287h10.74
				C222.619,394.712,222.944,395.072,222.908,395.478z"/>
		</g>
	</g>
</g>
</svg>
